<mxfile host="app.diagrams.net" modified="2021-01-28T08:11:14.546Z" agent="5.0 (Windows NT 10.0; Win64; x64) AppleWebKit/537.36 (KHTML, like Gecko) Chrome/88.0.4324.104 Safari/537.36" etag="h3pZyYPxiPBV9ZPg4amM" version="14.2.7" type="github">
  <diagram id="FPAvZ9XVhEj8qWoRCjlD" name="Page-1">
    <mxGraphModel dx="1422" dy="800" grid="1" gridSize="10" guides="1" tooltips="1" connect="1" arrows="1" fold="1" page="1" pageScale="1" pageWidth="827" pageHeight="1169" math="0" shadow="0">
      <root>
        <mxCell id="0" />
        <mxCell id="1" parent="0" />
        <mxCell id="t3QERhGJCjW5TRnK_SHQ-1" value="比较区别" style="whiteSpace=wrap;html=1;aspect=fixed;" vertex="1" parent="1">
          <mxGeometry x="300" y="250" width="80" height="80" as="geometry" />
        </mxCell>
        <mxCell id="t3QERhGJCjW5TRnK_SHQ-9" value="" style="edgeStyle=orthogonalEdgeStyle;rounded=0;orthogonalLoop=1;jettySize=auto;html=1;" edge="1" parent="1" source="t3QERhGJCjW5TRnK_SHQ-2" target="t3QERhGJCjW5TRnK_SHQ-7">
          <mxGeometry relative="1" as="geometry" />
        </mxCell>
        <mxCell id="t3QERhGJCjW5TRnK_SHQ-2" value="ReentrantReadWriteLock" style="rounded=0;whiteSpace=wrap;html=1;" vertex="1" parent="1">
          <mxGeometry x="450" y="170" width="120" height="60" as="geometry" />
        </mxCell>
        <mxCell id="t3QERhGJCjW5TRnK_SHQ-3" value="" style="endArrow=classic;html=1;entryX=0;entryY=0.5;entryDx=0;entryDy=0;" edge="1" parent="1" target="t3QERhGJCjW5TRnK_SHQ-2">
          <mxGeometry width="50" height="50" relative="1" as="geometry">
            <mxPoint x="390" y="280" as="sourcePoint" />
            <mxPoint x="530" y="180" as="targetPoint" />
          </mxGeometry>
        </mxCell>
        <mxCell id="t3QERhGJCjW5TRnK_SHQ-11" value="" style="edgeStyle=orthogonalEdgeStyle;rounded=0;orthogonalLoop=1;jettySize=auto;html=1;" edge="1" parent="1" source="t3QERhGJCjW5TRnK_SHQ-4" target="t3QERhGJCjW5TRnK_SHQ-10">
          <mxGeometry relative="1" as="geometry" />
        </mxCell>
        <mxCell id="t3QERhGJCjW5TRnK_SHQ-4" value="ReentrantLock" style="rounded=1;whiteSpace=wrap;html=1;" vertex="1" parent="1">
          <mxGeometry x="450" y="390" width="120" height="60" as="geometry" />
        </mxCell>
        <mxCell id="t3QERhGJCjW5TRnK_SHQ-6" value="" style="endArrow=classic;html=1;entryX=0;entryY=0.5;entryDx=0;entryDy=0;" edge="1" parent="1" target="t3QERhGJCjW5TRnK_SHQ-4">
          <mxGeometry width="50" height="50" relative="1" as="geometry">
            <mxPoint x="390" y="310" as="sourcePoint" />
            <mxPoint x="440" y="290" as="targetPoint" />
          </mxGeometry>
        </mxCell>
        <mxCell id="t3QERhGJCjW5TRnK_SHQ-7" value="读写分离" style="rounded=1;whiteSpace=wrap;html=1;" vertex="1" parent="1">
          <mxGeometry x="610" y="170" width="120" height="60" as="geometry" />
        </mxCell>
        <mxCell id="t3QERhGJCjW5TRnK_SHQ-10" value="独占锁，可重入，" style="rounded=1;whiteSpace=wrap;html=1;" vertex="1" parent="1">
          <mxGeometry x="630" y="390" width="120" height="60" as="geometry" />
        </mxCell>
      </root>
    </mxGraphModel>
  </diagram>
</mxfile>
